<svg width="41" height="41" viewBox="0 0 41 41" fill="none" xmlns="http://www.w3.org/2000/svg">
<rect y="0.744629" width="40.1748" height="40.1748" rx="20.0874" fill="#F3FFF3"/>
<path d="M14.0692 26.8102L16.5626 26.2838C16.9393 26.2006 17.3674 26.4296 17.5072 26.7892L18.4528 29.1556C18.7447 29.5681 19.3383 29.6295 19.715 29.2804L20.5648 28.4726C20.7724 28.2799 20.8768 27.8896 20.7944 27.6178L20.0195 25.0388C19.9572 24.8536 19.9876 24.5661 20.0785 24.3964L21.2038 22.2932C21.3696 21.9832 21.6774 21.958 21.902 22.2301L24.6884 25.7334C25.1263 26.281 25.7532 26.2271 26.0848 25.6072L26.5942 24.6553C26.8588 24.1608 26.7938 23.3951 26.4389 22.9584L23.2652 18.9726C23.1748 18.8578 23.1544 18.6476 23.2255 18.5147L24.4101 16.3008C24.7812 15.6071 24.7103 14.5155 24.2602 13.8665C24.098 13.6373 23.8398 13.4991 23.5591 13.4913C22.7694 13.477 21.818 14.0311 21.4468 14.7248L20.2622 16.9387C20.1912 17.0715 20.0049 17.1712 19.8592 17.1597L14.7897 16.7349C14.2334 16.6746 13.5604 17.0454 13.2958 17.5399L12.7865 18.4919C12.4548 19.1118 12.7578 19.6631 13.4564 19.7236L17.9169 20.0979C18.2645 20.1224 18.4177 20.4038 18.2519 20.7137L17.1265 22.817C17.0357 22.9867 16.8134 23.1715 16.6322 23.2264L14.0567 24.0127C13.7848 24.095 13.522 24.3911 13.4729 24.678L13.2724 25.8333C13.1762 26.3324 13.5527 26.7996 14.0692 26.8102Z" stroke="#14AE5C" stroke-width="1.25546" stroke-linecap="round" stroke-linejoin="round"/>
</svg>
