<svg width="14" height="21" viewBox="0 0 14 21" fill="none" xmlns="http://www.w3.org/2000/svg">
<path d="M2.52372 20.0109C2.11092 20.0115 1.71088 19.8997 1.39303 19.695C1.21413 19.5796 1.06626 19.438 0.957868 19.2782C0.849477 19.1184 0.782702 18.9435 0.761368 18.7636C0.740033 18.5836 0.764559 18.4022 0.833539 18.2297C0.902518 18.0571 1.0146 17.8969 1.16336 17.7581L9.07817 10.3951L1.44603 3.01841C1.29928 2.8779 1.18969 2.71622 1.12355 2.54267C1.05742 2.36912 1.03606 2.18712 1.06068 2.00712C1.08531 1.82713 1.15544 1.6527 1.26705 1.49385C1.37866 1.335 1.52955 1.19487 1.71103 1.08151C1.89383 0.956454 2.10789 0.862126 2.33979 0.804447C2.57169 0.746767 2.81643 0.726981 3.05863 0.746329C3.30083 0.765677 3.53527 0.823743 3.74725 0.916881C3.95922 1.01002 4.14414 1.13622 4.29042 1.28756L12.8236 9.52968C13.0834 9.77547 13.2255 10.0838 13.2255 10.402C13.2255 10.7201 13.0834 11.0285 12.8236 11.2743L3.99008 19.5164C3.81285 19.6826 3.58771 19.814 3.33293 19.8999C3.07816 19.9859 2.80092 20.0239 2.52372 20.0109Z" fill="#353434"/>
</svg>
