<svg width="41" height="41" viewBox="0 0 41 41" fill="none" xmlns="http://www.w3.org/2000/svg">
<path d="M20.5889 11.1124C17.2789 11.1124 14.5889 13.8024 14.5889 17.1124V20.0024C14.5889 20.6124 14.3289 21.5424 14.0189 22.0624L12.8689 23.9724C12.1589 25.1524 12.6489 26.4624 13.9489 26.9024C18.2589 28.3424 22.9089 28.3424 27.2189 26.9024C28.4289 26.5024 28.9589 25.0724 28.2989 23.9724L27.1489 22.0624C26.8489 21.5424 26.5889 20.6124 26.5889 20.0024V17.1124C26.5889 13.8124 23.8889 11.1124 20.5889 11.1124Z" stroke="#292D32" stroke-width="1.5" stroke-miterlimit="10" stroke-linecap="round"/>
<path d="M22.4422 11.4023C22.1322 11.3123 21.8122 11.2423 21.4822 11.2023C20.5222 11.0823 19.6022 11.1523 18.7422 11.4023C19.0322 10.6623 19.7522 10.1423 20.5922 10.1423C21.4322 10.1423 22.1522 10.6623 22.4422 11.4023Z" stroke="#292D32" stroke-width="1.5" stroke-miterlimit="10" stroke-linecap="round" stroke-linejoin="round"/>
<path d="M23.5898 27.2625C23.5898 28.9125 22.2398 30.2625 20.5898 30.2625C19.7698 30.2625 19.0098 29.9225 18.4698 29.3825C17.9298 28.8425 17.5898 28.0825 17.5898 27.2625" stroke="#292D32" stroke-width="1.5" stroke-miterlimit="10"/>
</svg>
