<svg width="84" height="84" viewBox="0 0 84 84" fill="none" xmlns="http://www.w3.org/2000/svg">
<circle cx="42" cy="42" r="42" fill="#002b9b"/>
<path d="M39.9797 32.6721L49.0371 17.1452C52.9619 18.1804 56.4451 20.0781 59.4867 22.8384C62.5282 25.5987 64.7382 28.8766 66.1166 32.6721H39.9797ZM32.7986 39.1416L23.9353 23.6148C26.2644 21.3289 28.9712 19.5174 32.0559 18.1804C35.1405 16.8433 38.4719 16.1748 42.05 16.1748C42.6107 16.1748 43.2576 16.2076 43.9909 16.2731C44.7241 16.3387 45.3926 16.4137 45.9964 16.4983L32.7986 39.1416ZM17.0129 48.5224C16.7542 47.4873 16.5489 46.4306 16.397 45.3524C16.2452 44.2741 16.1702 43.1743 16.1719 42.0529C16.1719 38.9907 16.6679 36.1009 17.6599 33.3837C18.6519 30.6665 20.0536 28.1866 21.8651 25.9438L34.9335 48.5224H17.0129ZM35.1276 66.9606C31.2028 65.9254 27.7092 64.0277 24.647 61.2674C21.5847 58.507 19.3635 55.2292 17.9834 51.4337H44.0555L35.1276 66.9606ZM42.05 67.931C41.403 67.931 40.7449 67.8879 40.0755 67.8016C39.4061 67.7153 38.7704 67.6291 38.1683 67.5428L51.3014 44.9642L60.1647 60.491C57.8356 62.7769 55.1297 64.5884 52.0467 65.9254C48.9638 67.2625 45.6315 67.931 42.05 67.931ZM62.2349 58.162L49.1665 35.5834H67.0871C67.3458 36.6185 67.5511 37.6752 67.703 38.7534C67.8548 39.8317 67.9298 40.9315 67.9281 42.0529C67.9281 45.072 67.4002 47.9617 66.3444 50.7221C65.2885 53.4824 63.9187 55.9624 62.2349 58.162Z" fill="white"/>
</svg>
