<svg width="41" height="41" viewBox="0 0 41 41" fill="none" xmlns="http://www.w3.org/2000/svg">
<rect y="0.667969" width="40.1748" height="40.1748" rx="9" fill="#8893DF" fill-opacity="0.14"/>
<path d="M26.778 14.1405C26.7456 13.6643 26.5335 13.2182 26.1847 12.8924C25.8359 12.5665 25.3763 12.3853 24.899 12.3854H15.2738L15.1449 12.3896C14.6687 12.4222 14.2227 12.6345 13.897 12.9835C13.5714 13.3325 13.3904 13.7921 13.3906 14.2694V27.2408L13.3948 27.3697C13.4273 27.846 13.6393 28.2921 13.9882 28.6179C14.337 28.9437 14.7965 29.1249 15.2738 29.1249H21.608L20.3526 27.8694H15.2738L15.1884 27.8636C15.0382 27.8429 14.9004 27.7686 14.8007 27.6543C14.701 27.5399 14.6461 27.3934 14.6461 27.2417V14.2694L14.6519 14.184C14.6726 14.0338 14.7469 13.896 14.8612 13.7963C14.9756 13.6966 15.1221 13.6417 15.2738 13.6417H24.899L24.9844 13.6475C25.1347 13.6682 25.2724 13.7425 25.3721 13.8568C25.4718 13.9712 25.5268 14.1177 25.5268 14.2694V23.9507L26.4968 22.9806C26.5861 22.8914 26.681 22.8132 26.7814 22.7463V14.2686L26.778 14.1405ZM23.6754 29.124H23.6118C23.4562 29.1162 23.3092 29.0509 23.1991 28.9407L21.1067 26.8466C20.989 26.7288 20.923 26.569 20.9232 26.4024C20.9234 26.2359 20.9897 26.0763 21.1075 25.9586C21.2254 25.841 21.3852 25.7749 21.5517 25.7751C21.7183 25.7753 21.8779 25.8416 21.9956 25.9594L23.6436 27.6091L27.3848 23.8678C27.4428 23.8079 27.5121 23.7601 27.5887 23.7273C27.6653 23.6944 27.7477 23.6771 27.831 23.6764C27.9144 23.6758 27.997 23.6917 28.0741 23.7233C28.1513 23.7549 28.2213 23.8015 28.2802 23.8605C28.3392 23.9194 28.3857 23.9896 28.4173 24.0667C28.4488 24.1439 28.4646 24.2265 28.4639 24.3099C28.4631 24.3932 28.4457 24.4756 28.4128 24.5522C28.3799 24.6287 28.332 24.698 28.272 24.7559L24.0872 28.9407C23.9773 29.0507 23.8306 29.116 23.6754 29.124ZM21.6265 24.5215C21.5757 24.5192 21.5249 24.5192 21.4741 24.5215H19.4545C19.288 24.5215 19.1284 24.4554 19.0106 24.3377C18.8929 24.2199 18.8268 24.0603 18.8268 23.8938C18.8268 23.7273 18.8929 23.5676 19.0106 23.4499C19.1284 23.3322 19.288 23.2661 19.4545 23.2661H23.6427C23.8092 23.2661 23.9689 23.3322 24.0866 23.4499C24.2043 23.5676 24.2705 23.7273 24.2705 23.8938C24.2705 24.0603 24.2043 24.2199 24.0866 24.3377C23.9689 24.4554 23.8092 24.5215 23.6427 24.5215H21.6265ZM17.5755 17.1997C17.5755 17.4216 17.4873 17.6345 17.3304 17.7915C17.1734 17.9485 16.9605 18.0366 16.7385 18.0366C16.5165 18.0366 16.3037 17.9485 16.1467 17.7915C15.9897 17.6345 15.9016 17.4216 15.9016 17.1997C15.9016 16.9777 15.9897 16.7648 16.1467 16.6078C16.3037 16.4509 16.5165 16.3627 16.7385 16.3627C16.9605 16.3627 17.1734 16.4509 17.3304 16.6078C17.4873 16.7648 17.5755 16.9777 17.5755 17.1997ZM18.8276 17.198C18.8276 17.0315 18.8938 16.8718 19.0115 16.7541C19.1292 16.6364 19.2889 16.5703 19.4553 16.5703H23.6436C23.8101 16.5703 23.9697 16.6364 24.0874 16.7541C24.2052 16.8718 24.2713 17.0315 24.2713 17.198C24.2713 17.3645 24.2052 17.5241 24.0874 17.6419C23.9697 17.7596 23.8101 17.8257 23.6436 17.8257H19.4553C19.2889 17.8257 19.1292 17.7596 19.0115 17.6419C18.8938 17.5241 18.8276 17.3645 18.8276 17.198ZM19.4553 19.9182C19.2889 19.9182 19.1292 19.9843 19.0115 20.102C18.8938 20.2197 18.8276 20.3794 18.8276 20.5459C18.8276 20.7124 18.8938 20.872 19.0115 20.9898C19.1292 21.1075 19.2889 21.1736 19.4553 21.1736H23.6436C23.726 21.1736 23.8076 21.1574 23.8838 21.1258C23.96 21.0943 24.0292 21.048 24.0874 20.9898C24.1457 20.9315 24.192 20.8623 24.2235 20.7861C24.2551 20.7099 24.2713 20.6283 24.2713 20.5459C24.2713 20.4634 24.2551 20.3818 24.2235 20.3057C24.192 20.2295 24.1457 20.1603 24.0874 20.102C24.0292 20.0437 23.96 19.9975 23.8838 19.9659C23.8076 19.9344 23.726 19.9182 23.6436 19.9182H19.4553ZM16.7385 21.3829C16.9605 21.3829 17.1734 21.2947 17.3304 21.1377C17.4873 20.9808 17.5755 20.7679 17.5755 20.5459C17.5755 20.3239 17.4873 20.111 17.3304 19.9541C17.1734 19.7971 16.9605 19.7089 16.7385 19.7089C16.5165 19.7089 16.3037 19.7971 16.1467 19.9541C15.9897 20.111 15.9016 20.3239 15.9016 20.5459C15.9016 20.7679 15.9897 20.9808 16.1467 21.1377C16.3037 21.2947 16.5165 21.3829 16.7385 21.3829ZM17.5755 23.8921C17.5755 24.1141 17.4873 24.327 17.3304 24.4839C17.1734 24.6409 16.9605 24.7291 16.7385 24.7291C16.5165 24.7291 16.3037 24.6409 16.1467 24.4839C15.9897 24.327 15.9016 24.1141 15.9016 23.8921C15.9016 23.6701 15.9897 23.4572 16.1467 23.3003C16.3037 23.1433 16.5165 23.0551 16.7385 23.0551C16.9605 23.0551 17.1734 23.1433 17.3304 23.3003C17.4873 23.4572 17.5755 23.6701 17.5755 23.8921Z" fill="#3949BA"/>
</svg>
