<svg width="18" height="19" viewBox="0 0 18 19" fill="none" xmlns="http://www.w3.org/2000/svg">
<path d="M8.25 2H6.75C3 2 1.5 3.5 1.5 7.25V11.75C1.5 15.5 3 17 6.75 17H11.25C15 17 16.5 15.5 16.5 11.75V10.25" stroke="#14AE5C" stroke-width="1.5" stroke-linecap="round" stroke-linejoin="round"/>
<path d="M12.0284 2.76495L6.11844 8.67495C5.89344 8.89995 5.66844 9.34245 5.62344 9.66495L5.30094 11.9224C5.18094 12.7399 5.75844 13.3099 6.57594 13.1974L8.83344 12.8749C9.14844 12.8299 9.59094 12.6049 9.82344 12.3799L15.7334 6.46995C16.7534 5.44995 17.2334 4.26495 15.7334 2.76495C14.2334 1.26495 13.0484 1.74495 12.0284 2.76495Z" stroke="#14AE5C" stroke-width="1.5" stroke-miterlimit="10" stroke-linecap="round" stroke-linejoin="round"/>
<path d="M11.1836 3.61255C11.6861 5.40505 13.0886 6.80755 14.8886 7.31755" stroke="#14AE5C" stroke-width="1.5" stroke-miterlimit="10" stroke-linecap="round" stroke-linejoin="round"/>
</svg>
