<svg width="21" height="21" viewBox="0 0 21 21" fill="none" xmlns="http://www.w3.org/2000/svg">
<g clip-path="url(#clip0_1370_206)">
<path d="M13.879 9.96831L12.9918 9.08112L8.90733 13.1656L7.13294 11.3912L6.24575 12.2784L8.90733 14.9399L13.879 9.96831ZM15.9463 3.22229H15.1093V1.54834H13.4354V3.22229L6.73956 3.22229V1.54834H5.06561V3.22229H4.22864C3.2996 3.22229 2.56306 3.97557 2.56306 4.89624L2.55469 16.6139C2.55469 17.5346 3.2996 18.2878 4.22864 18.2878H15.9463C16.867 18.2878 17.6202 17.5346 17.6202 16.6139V4.89624C17.6202 3.97557 16.867 3.22229 15.9463 3.22229ZM15.9463 16.6139H4.22864L4.22864 7.40717L15.9463 7.40717V16.6139Z" fill="#D77036"/>
</g>
<defs>
<clipPath id="clip0_1370_206">
<rect width="20.0874" height="20.0874" fill="white" transform="translate(0.0429688 0.711426)"/>
</clipPath>
</defs>
</svg>
