<svg width="41" height="41" viewBox="0 0 41 41" fill="none" xmlns="http://www.w3.org/2000/svg">
<rect y="0.667969" width="40.1748" height="40.1748" rx="9" fill="#D77036" fill-opacity="0.11"/>
<g clip-path="url(#clip0_1538_1468)">
<path d="M23.879 19.9683L22.9918 19.0811L18.9073 23.1656L17.1329 21.3912L16.2457 22.2784L18.9073 24.9399L23.879 19.9683ZM25.9463 13.2223H25.1093V11.5483H23.4354V13.2223H16.7396V11.5483H15.0656V13.2223H14.2286C13.2996 13.2223 12.5631 13.9756 12.5631 14.8962L12.5547 26.6139C12.5547 27.5346 13.2996 28.2878 14.2286 28.2878H25.9463C26.867 28.2878 27.6202 27.5346 27.6202 26.6139V14.8962C27.6202 13.9756 26.867 13.2223 25.9463 13.2223ZM25.9463 26.6139H14.2286V17.4072H25.9463V26.6139Z" fill="#D77036"/>
</g>
<defs>
<clipPath id="clip0_1538_1468">
<rect width="20.0874" height="20.0874" fill="white" transform="translate(10.043 10.7114)"/>
</clipPath>
</defs>
</svg>
