<svg width="26" height="26" viewBox="0 0 26 26" fill="none" xmlns="http://www.w3.org/2000/svg">
<g clip-path="url(#clip0_1180_3513)">
<path d="M17.5134 12.0941L16.4198 11.0005L11.3852 16.0351L9.198 13.8479L8.10441 14.9415L11.3852 18.2223L17.5134 12.0941ZM20.0616 3.7787H19.0299V1.71533H16.9666V3.7787H8.71311V1.71533H6.64974V3.7787H5.61806C4.47289 3.7787 3.565 4.70722 3.565 5.84207L3.55469 20.2856C3.55469 21.4205 4.47289 22.349 5.61806 22.349H20.0616C21.1965 22.349 22.125 21.4205 22.125 20.2856V5.84207C22.125 4.70722 21.1965 3.7787 20.0616 3.7787ZM20.0616 20.2856H5.61806V8.93712H20.0616V20.2856Z" fill="#79001D"/>
</g>
<defs>
<clipPath id="clip0_1180_3513">
<rect width="24.7604" height="24.7604" fill="white" transform="translate(0.460938 0.683594)"/>
</clipPath>
</defs>
</svg>
