<svg width="25" height="24" viewBox="0 0 25 24" fill="none" xmlns="http://www.w3.org/2000/svg">
<path d="M7.625 2H6.625C3.625 2 2.625 3.79 2.625 6V7V21C2.625 21.83 3.565 22.3 4.225 21.8L5.935 20.52C6.335 20.22 6.895 20.26 7.255 20.62L8.915 22.29C9.305 22.68 9.945 22.68 10.335 22.29L12.015 20.61C12.365 20.26 12.925 20.22 13.315 20.52L15.025 21.8C15.685 22.29 16.625 21.82 16.625 21V4C16.625 2.9 17.525 2 18.625 2H7.625ZM6.595 14.01C6.045 14.01 5.595 13.56 5.595 13.01C5.595 12.46 6.045 12.01 6.595 12.01C7.145 12.01 7.595 12.46 7.595 13.01C7.595 13.56 7.145 14.01 6.595 14.01ZM6.595 10.01C6.045 10.01 5.595 9.56 5.595 9.01C5.595 8.46 6.045 8.01 6.595 8.01C7.145 8.01 7.595 8.46 7.595 9.01C7.595 9.56 7.145 10.01 6.595 10.01ZM12.625 13.76H9.625C9.215 13.76 8.875 13.42 8.875 13.01C8.875 12.6 9.215 12.26 9.625 12.26H12.625C13.035 12.26 13.375 12.6 13.375 13.01C13.375 13.42 13.035 13.76 12.625 13.76ZM12.625 9.76H9.625C9.215 9.76 8.875 9.42 8.875 9.01C8.875 8.6 9.215 8.26 9.625 8.26H12.625C13.035 8.26 13.375 8.6 13.375 9.01C13.375 9.42 13.035 9.76 12.625 9.76Z" fill="#0069ff"/>
<path d="M18.635 2V3.5C19.295 3.5 19.925 3.77 20.385 4.22C20.865 4.71 21.125 5.34 21.125 6V8.42C21.125 9.16 20.795 9.5 20.045 9.5H18.125V4.01C18.125 3.73 18.355 3.5 18.635 3.5V2ZM18.635 2C17.525 2 16.625 2.9 16.625 4.01V11H20.045C21.625 11 22.625 10 22.625 8.42V6C22.625 4.9 22.175 3.9 21.455 3.17C20.725 2.45 19.735 2.01 18.635 2C18.645 2 18.635 2 18.635 2Z" fill="#0069ff"/>
</svg>
