<svg width="25" height="24" viewBox="0 0 25 24" fill="none" xmlns="http://www.w3.org/2000/svg">
<path d="M22.625 6V8.42C22.625 10 21.625 11 20.045 11H16.625V4.01C16.625 2.9 17.535 2 18.645 2C19.735 2.01 20.735 2.45 21.455 3.17C22.175 3.9 22.625 4.9 22.625 6Z" stroke="#A9A9A9" stroke-width="1.5" stroke-miterlimit="10" stroke-linecap="round" stroke-linejoin="round"/>
<path d="M2.625 7V21C2.625 21.83 3.565 22.3 4.225 21.8L5.935 20.52C6.335 20.22 6.895 20.26 7.255 20.62L8.915 22.29C9.305 22.68 9.945 22.68 10.335 22.29L12.015 20.61C12.365 20.26 12.925 20.22 13.315 20.52L15.025 21.8C15.685 22.29 16.625 21.82 16.625 21V4C16.625 2.9 17.525 2 18.625 2H7.625H6.625C3.625 2 2.625 3.79 2.625 6V7Z" stroke="#A9A9A9" stroke-width="1.5" stroke-miterlimit="10" stroke-linecap="round" stroke-linejoin="round"/>
<path d="M9.625 13.0098H12.625" stroke="#A9A9A9" stroke-width="1.5" stroke-linecap="round" stroke-linejoin="round"/>
<path d="M9.625 9.00977H12.625" stroke="#A9A9A9" stroke-width="1.5" stroke-linecap="round" stroke-linejoin="round"/>
<path d="M6.62109 13H6.63008" stroke="#A9A9A9" stroke-width="1.5" stroke-linecap="round" stroke-linejoin="round"/>
<path d="M6.62109 9H6.63008" stroke="#A9A9A9" stroke-width="1.5" stroke-linecap="round" stroke-linejoin="round"/>
</svg>
