<svg width="41" height="41" viewBox="0 0 41 41" fill="none" xmlns="http://www.w3.org/2000/svg">
<rect x="0.53125" y="0.669922" width="40" height="40" rx="8" fill="#eff6ff"/>
<path d="M16.8787 13.8374L17.3813 11.6699H23.3812L21.8812 18.4199H25.7812L23.9137 20.8574L24.9862 21.9299L27.8888 18.1274C27.9675 18.0209 28.0167 17.8953 28.0312 17.7636C28.0457 17.6318 28.025 17.4986 27.9713 17.3774C27.9138 17.2419 27.8178 17.1262 27.6951 17.0449C27.5724 16.9635 27.4285 16.9201 27.2812 16.9199H23.7188L25.0312 11.0849C25.0561 10.9743 25.0555 10.8594 25.0295 10.749C25.0035 10.6385 24.9528 10.5354 24.8812 10.4474C24.8091 10.3584 24.7175 10.2871 24.6135 10.239C24.5095 10.1909 24.3958 10.1673 24.2812 10.1699H16.7812C16.6089 10.1653 16.4402 10.2202 16.3036 10.3254C16.167 10.4306 16.0708 10.5796 16.0312 10.7474L15.6263 12.5849L16.8787 13.8374ZM31.0312 30.1124L24.0487 23.1299L22.9838 22.0574L16.4813 15.5624L15.2288 14.3099L11.0888 10.1699L10.0312 11.2274L14.8312 16.0349L13.7812 20.4974C13.7548 20.6092 13.7544 20.7256 13.78 20.8376C13.8056 20.9496 13.8567 21.0542 13.9291 21.1433C14.0016 21.2325 14.0936 21.3038 14.198 21.3517C14.3024 21.3997 14.4164 21.423 14.5312 21.4199H18.1537L16.7812 30.3074C16.7565 30.4722 16.7873 30.6405 16.8687 30.7858C16.9502 30.9311 17.0778 31.0452 17.2313 31.1099C17.3266 31.1486 17.4284 31.169 17.5312 31.1699C17.6458 31.1697 17.7587 31.1432 17.8614 31.0925C17.9642 31.0418 18.0539 30.9682 18.1237 30.8774L23.1337 24.3299L29.9738 31.1699L31.0312 30.1124ZM15.4763 19.9199L16.0837 17.2799L18.7238 19.9199H15.4763ZM18.7162 27.6299L19.7812 20.9474L22.0312 23.2574L18.7162 27.6299Z" fill="black"/>
</svg>
