<svg width="41" height="41" viewBox="0 0 41 41" fill="none" xmlns="http://www.w3.org/2000/svg">
<rect width="40.1748" height="40.1748" rx="20.0874" fill="#FFF4F7"/>
<path d="M24.9054 10.375L21.0022 14.2512C20.0302 15.224 20.0302 16.8373 21.0022 17.8118L19.5003 19.285L18.4203 18.205L12.0922 11.8769L11.4847 11.2964L10.8772 11.876C10.1598 12.5982 9.75715 13.5749 9.75715 14.5929C9.75715 15.6109 10.1598 16.5876 10.8772 17.3098L16.1777 22.6085L9.61328 29.1729L10.8257 30.3879L17.3901 23.8218L18.3925 24.7972L18.9983 25.403L19.5788 24.7972L21.0807 23.2937L28.1741 30.3871L29.3891 29.1721L21.689 21.4998L20.7128 20.5L22.1894 18.9981H22.2164L22.2417 19.0234C23.2188 19.9516 24.7898 19.9558 25.7483 18.9981L25.8276 18.8918L29.6245 15.0949L28.4382 13.9086L24.5628 17.7831C24.1958 18.151 23.7723 18.1586 23.4027 17.811L27.8577 13.3281L26.6722 12.1418L22.1894 16.5968C21.8418 16.2281 21.8493 15.8037 22.2164 15.4375L26.0917 11.5613L24.9054 10.375ZM11.721 13.9356L19.8969 22.1082L18.9992 23.0051L12.0914 16.0948C11.4653 15.4704 11.4467 14.6807 11.7201 13.9348L11.721 13.9356Z" fill="#DD3E3E"/>
</svg>
