<svg width="25" height="24" viewBox="0 0 25 24" fill="none" xmlns="http://www.w3.org/2000/svg">
<path d="M21.4843 8.36985L14.5543 2.82985C13.4843 1.96985 11.7543 1.96985 10.6943 2.81985L3.76429 8.36985C2.98429 8.98985 2.48429 10.2998 2.65429 11.2798L3.98429 19.2398C4.22429 20.6598 5.58429 21.8098 7.02429 21.8098H18.2243C19.6543 21.8098 21.0243 20.6498 21.2643 19.2398L22.5943 11.2798C22.7543 10.2998 22.2543 8.98985 21.4843 8.36985ZM12.6243 15.4998C11.2443 15.4998 10.1243 14.3798 10.1243 12.9998C10.1243 11.6198 11.2443 10.4998 12.6243 10.4998C14.0043 10.4998 15.1243 11.6198 15.1243 12.9998C15.1243 14.3798 14.0043 15.4998 12.6243 15.4998Z" fill="#79001D"/>
</svg>
