<svg width="25" height="24" viewBox="0 0 25 24" fill="none" xmlns="http://www.w3.org/2000/svg">
<path d="M10.6943 2.81984L3.76429 8.36983C2.98429 8.98983 2.48429 10.2999 2.65429 11.2799L3.98429 19.2398C4.22429 20.6598 5.58428 21.8098 7.02428 21.8098H18.2243C19.6543 21.8098 21.0243 20.6498 21.2643 19.2398L22.5943 11.2799C22.7543 10.2999 22.2543 8.98983 21.4843 8.36983L14.5543 2.82985C13.4843 1.96985 11.7543 1.96984 10.6943 2.81984Z" stroke="#A8A8A8" stroke-width="1.5" stroke-linecap="round" stroke-linejoin="round"/>
<path d="M12.625 15.5C14.0057 15.5 15.125 14.3807 15.125 13C15.125 11.6193 14.0057 10.5 12.625 10.5C11.2443 10.5 10.125 11.6193 10.125 13C10.125 14.3807 11.2443 15.5 12.625 15.5Z" stroke="#A8A8A8" stroke-width="1.5" stroke-linecap="round" stroke-linejoin="round"/>
</svg>
