<svg width="41" height="41" viewBox="0 0 41 41" fill="none" xmlns="http://www.w3.org/2000/svg">
<rect x="0.53125" y="0.669922" width="40" height="40" rx="8" fill="#FFF7F3"/>
<path d="M25.5047 12.3513C25.5949 12.2558 25.6654 12.1435 25.7122 12.0208C25.7591 11.8981 25.7812 11.7673 25.7775 11.636C25.7738 11.5047 25.7443 11.3754 25.6906 11.2556C25.6369 11.1357 25.5602 11.0275 25.4647 10.9373C25.3692 10.8471 25.2569 10.7766 25.1342 10.7297C25.0115 10.6829 24.8807 10.6607 24.7494 10.6645C24.6181 10.6682 24.4888 10.6977 24.3689 10.7514C24.249 10.8051 24.1409 10.8818 24.0507 10.9773L15.5507 19.9773C15.3752 20.163 15.2773 20.4088 15.2773 20.6643C15.2773 20.9198 15.3752 21.1656 15.5507 21.3513L24.0507 30.3523C24.1403 30.4499 24.2484 30.5287 24.3688 30.5841C24.4891 30.6395 24.6192 30.6705 24.7516 30.6752C24.884 30.6799 25.016 30.6582 25.14 30.6115C25.2639 30.5647 25.3774 30.4938 25.4737 30.4029C25.57 30.3119 25.6473 30.2027 25.7011 30.0817C25.7548 29.9606 25.784 29.83 25.7869 29.6976C25.7898 29.5651 25.7663 29.4334 25.7179 29.3101C25.6694 29.1868 25.597 29.0744 25.5047 28.9793L17.6527 20.6643L25.5047 12.3513Z" fill="black"/>
</svg>
