<svg width="49" height="49" viewBox="0 0 49 49" fill="none" xmlns="http://www.w3.org/2000/svg">
<rect width="48.7525" height="48.7525" rx="4" fill="#FFF7F3"/>
<path d="M19.8906 22.1568V18.6137C19.8906 17.3608 20.3883 16.1592 21.2743 15.2733C22.1602 14.3874 23.3618 13.8896 24.6147 13.8896C25.8676 13.8896 27.0692 14.3874 27.9551 15.2733C28.8411 16.1592 29.3388 17.3608 29.3388 18.6137V22.1568" stroke="#002b9b" stroke-width="1.70067" stroke-linecap="round"/>
<path d="M16.3438 22.156H32.8766V32.7842C32.8766 33.4106 32.6277 34.0114 32.1848 34.4543C31.7419 34.8972 31.1411 35.1461 30.5147 35.1461H18.7056C18.0792 35.1461 17.4784 34.8972 17.0355 34.4543C16.5926 34.0114 16.3438 33.4106 16.3438 32.7842V22.156Z" stroke="#002b9b" stroke-width="1.70067" stroke-linejoin="round"/>
<path d="M27.5625 28.6514H27.574V28.6629H27.5625V28.6514Z" stroke="#002b9b" stroke-width="1.70067" stroke-linejoin="round"/>
</svg>
