<svg width="25" height="23" viewBox="0 0 25 23" fill="none" xmlns="http://www.w3.org/2000/svg">
<path d="M14.9927 6.93072V4.48886C14.9927 3.84124 14.7355 3.22014 14.2775 2.7622C13.8196 2.30426 13.1985 2.047 12.5509 2.047H4.00436C3.35674 2.047 2.73564 2.30426 2.2777 2.7622C1.81977 3.22014 1.5625 3.84124 1.5625 4.48886V19.14C1.5625 19.7876 1.81977 20.4087 2.2777 20.8667C2.73564 21.3246 3.35674 21.5819 4.00436 21.5819H12.5509C13.1985 21.5819 13.8196 21.3246 14.2775 20.8667C14.7355 20.4087 14.9927 19.7876 14.9927 19.14V16.6982" stroke="#002b9b" stroke-width="2.44186" stroke-linecap="round" stroke-linejoin="round"/>
<path d="M8.88672 11.8145H23.5379M23.5379 11.8145L19.8751 8.15173M23.5379 11.8145L19.8751 15.4773" stroke="#002b9b" stroke-width="2.44186" stroke-linecap="round" stroke-linejoin="round"/>
</svg>
