<svg width="41" height="41" viewBox="0 0 41 41" fill="none" xmlns="http://www.w3.org/2000/svg">
<rect y="0.744629" width="40.1748" height="40.1748" rx="20.0874" fill="#FFFBF3"/>
<path fill-rule="evenodd" clip-rule="evenodd" d="M28.4664 15.1009L27.4914 14.8709L24.8564 17.4909L23.3639 15.9709L25.9339 13.2746L25.7089 12.2846C25.1659 12.1025 24.5978 12.0064 24.0252 11.9996C23.4004 11.9886 22.7801 12.1077 22.2039 12.3496C21.6468 12.601 21.1434 12.9575 20.7214 13.3996C20.2501 13.8443 19.8774 14.383 19.6277 14.9809C19.1447 16.1695 19.1447 17.4997 19.6277 18.6884C17.0217 21.2521 14.4494 23.8498 11.9114 26.4809C11.6489 26.8246 11.5239 27.2534 11.5564 27.6846C11.5689 27.9143 11.6265 28.1393 11.7261 28.3467C11.8256 28.5541 11.965 28.7399 12.1364 28.8934C12.2931 29.0642 12.4752 29.2009 12.6827 29.3034C12.8952 29.3971 13.1239 29.4509 13.3552 29.4621C13.7502 29.4546 14.1289 29.3046 14.4227 29.0409C16.3577 27.2196 20.0652 23.4784 22.1714 21.2859C22.7427 21.5284 23.3564 21.6534 23.9764 21.6521C24.6005 21.6513 25.2181 21.5256 25.7928 21.2824C26.3675 21.0392 26.8877 20.6833 27.3227 20.2359C28.2141 19.3238 28.7127 18.0987 28.7114 16.8234C28.7261 16.2396 28.6433 15.6574 28.4664 15.1009ZM13.6664 28.1546C13.6186 28.1978 13.5605 28.2279 13.4977 28.2421C13.4361 28.2538 13.3729 28.2538 13.3114 28.2421C13.2468 28.2321 13.1853 28.2077 13.1314 28.1709C13.0737 28.1369 13.0249 28.0898 12.9889 28.0334C12.8139 27.8546 12.6502 27.5146 12.8139 27.3234C14.5264 25.5021 18.0527 21.9421 20.2577 19.7659C20.3827 19.9317 20.5193 20.0884 20.6677 20.2359C20.8152 20.39 20.9735 20.5321 21.1427 20.6621C19.0102 22.8496 15.5314 26.3671 13.6664 28.1546ZM27.5639 16.8234C27.5664 17.7796 27.1939 18.6984 26.5239 19.3834C25.8555 20.0395 24.9562 20.4071 24.0195 20.4071C23.0829 20.4071 22.1836 20.0395 21.5152 19.3834C21.0249 18.8721 20.69 18.2321 20.5494 17.5379C20.4089 16.8436 20.4685 16.1238 20.7214 15.4621C20.8897 15.0118 21.1505 14.6019 21.487 14.2587C21.8235 13.9155 22.2283 13.6467 22.6752 13.4696C23.0999 13.2933 23.5553 13.2024 24.0152 13.2021H24.3327L22.0614 15.5434V16.4134L24.4302 18.7709H25.2552L27.5639 16.5009V16.8234ZM14.0502 19.1046H15.9639L16.8452 20.0009L17.6927 19.1584L16.8614 18.3109V18.2571L16.9327 16.1959L16.6577 15.6496L13.0827 13.2971L12.3439 13.3796L11.3052 14.4409L11.2227 15.1896L13.5202 18.8371L14.0502 19.1046ZM12.8689 14.5646L15.7614 16.4696L15.7127 17.8734H14.3677L12.5027 14.9209L12.8689 14.5646ZM21.7502 23.2646L22.5927 22.4234L26.4752 26.4046C26.8019 26.7484 26.9841 27.2047 26.9841 27.679C26.9841 28.1533 26.8019 28.6095 26.4752 28.9534C26.2296 29.2064 25.9134 29.3794 25.5679 29.4496C25.2224 29.5199 24.8637 29.4842 24.5389 29.3471C24.3313 29.2554 24.1453 29.1213 23.9927 28.9534L20.0652 24.9496L20.9139 24.1021L24.8289 28.0946C24.8815 28.1527 24.947 28.1977 25.0202 28.2259C25.1641 28.2839 25.325 28.2839 25.4689 28.2259C25.5421 28.1977 25.6076 28.1527 25.6602 28.0946C25.716 28.0414 25.7588 27.9759 25.7852 27.9034C25.8145 27.8302 25.8298 27.7522 25.8302 27.6734C25.8277 27.5949 25.8129 27.5173 25.7864 27.4434C25.7601 27.3708 25.7173 27.3054 25.6614 27.2521L21.7502 23.2646Z" fill="#AE8314"/>
</svg>
