<svg width="41" height="41" viewBox="0 0 41 41" fill="none" xmlns="http://www.w3.org/2000/svg">
<rect width="40.1748" height="40.1748" rx="20.0874" fill="#F3F3FF"/>
<path d="M12.5 18.3335V25.8335C12.5 26.2755 12.6756 26.6994 12.9882 27.012C13.3007 27.3246 13.7246 27.5002 14.1667 27.5002H25.8333C26.2754 27.5002 26.6993 27.3246 27.0118 27.012C27.3244 26.6994 27.5 26.2755 27.5 25.8335V18.3335" stroke="#1423AE" stroke-width="1.5"/>
<path d="M22.3594 27.5002V22.5002C22.3594 22.0581 22.1838 21.6342 21.8712 21.3217C21.5587 21.0091 21.1347 20.8335 20.6927 20.8335H19.026C18.584 20.8335 18.1601 21.0091 17.8475 21.3217C17.535 21.6342 17.3594 22.0581 17.3594 22.5002V27.5002" stroke="#1423AE" stroke-width="1.5" stroke-miterlimit="16"/>
<path d="M28.1791 17.8033L26.7674 12.8625C26.7375 12.758 26.6744 12.6662 26.5877 12.6007C26.5009 12.5353 26.3952 12.5 26.2866 12.5H22.9141L23.3099 17.2533C23.316 17.3297 23.3402 17.4036 23.3805 17.4688C23.4208 17.534 23.476 17.5887 23.5416 17.6283C23.8666 17.8225 24.5016 18.1808 24.9974 18.3333C25.8441 18.5942 27.0807 18.5 27.7857 18.4133C27.8543 18.4045 27.92 18.3808 27.9785 18.3439C28.0369 18.307 28.0866 18.2577 28.124 18.1997C28.1615 18.1416 28.1858 18.076 28.1953 18.0076C28.2048 17.9391 28.1993 17.8694 28.1791 17.8033Z" stroke="#1423AE" stroke-width="1.5"/>
<path d="M21.6645 18.3333C22.1378 18.1875 22.7378 17.855 23.0728 17.6567C23.1507 17.61 23.214 17.5424 23.2553 17.4615C23.2965 17.3806 23.3142 17.2896 23.3061 17.1992L22.9145 12.5H17.0811L16.6895 17.1992C16.6813 17.2898 16.6988 17.3809 16.7401 17.4619C16.7814 17.543 16.8447 17.6108 16.9228 17.6575C17.2578 17.855 17.8578 18.1875 18.3311 18.3333C19.5753 18.7167 20.4203 18.7167 21.6645 18.3333Z" stroke="#1423AE" stroke-width="1.5"/>
<path d="M13.2288 12.8625L11.8172 17.8042C11.7972 17.8702 11.7919 17.9397 11.8015 18.0079C11.8112 18.0762 11.8356 18.1415 11.873 18.1994C11.9104 18.2573 11.96 18.3063 12.0183 18.3431C12.0766 18.3799 12.1421 18.4036 12.2105 18.4125C12.9147 18.5 14.1522 18.5933 14.9988 18.3333C15.4947 18.1808 16.1305 17.8225 16.4547 17.6292C16.5203 17.5894 16.5756 17.5346 16.6159 17.4692C16.6562 17.4039 16.6803 17.3299 16.6863 17.2533L17.0822 12.5H13.7097C13.601 12.5 13.4953 12.5353 13.4085 12.6007C13.3218 12.6662 13.2587 12.758 13.2288 12.8625Z" stroke="#1423AE" stroke-width="1.5"/>
</svg>
