<svg width="41" height="41" viewBox="0 0 41 41" fill="none" xmlns="http://www.w3.org/2000/svg">
<rect y="0.744629" width="40.1748" height="40.1748" rx="20.0874" fill="#FDF3FF"/>
<path d="M24 17.7446C24 23.0746 16 23.0746 16 17.7446H18C18 20.4146 22 20.4146 22 17.7446M28 26.7446V29.7446H12V26.7446C12 24.0746 17.33 22.7446 20 22.7446C22.67 22.7446 28 24.0746 28 26.7446ZM26.1 26.7446C26.1 26.1046 22.97 24.6446 20 24.6446C17.03 24.6446 13.9 26.1046 13.9 26.7446V27.8446H26.1M20.5 10.7446C20.78 10.7446 21 10.9646 21 11.2446V14.2446H22V11.7446C22.7077 12.0722 23.3006 12.6048 23.7019 13.2735C24.1031 13.9422 24.294 14.7161 24.25 15.4946C24.25 15.4946 24.95 15.6346 25 16.7446H15C15 15.6346 15.75 15.4946 15.75 15.4946C15.706 14.7161 15.8969 13.9422 16.2981 13.2735C16.6994 12.6048 17.2923 12.0722 18 11.7446V14.2446H19V11.2446C19 10.9646 19.22 10.7446 19.5 10.7446" fill="#AE14A8"/>
</svg>
