<svg width="25" height="24" viewBox="0 0 25 24" fill="none" xmlns="http://www.w3.org/2000/svg">
<path d="M12.7437 12.78C12.6737 12.77 12.5837 12.77 12.5037 12.78C10.7437 12.72 9.34375 11.28 9.34375 9.50998C9.34375 7.69998 10.8037 6.22998 12.6237 6.22998C14.4337 6.22998 15.9037 7.69998 15.9037 9.50998C15.8937 11.28 14.5037 12.72 12.7437 12.78Z" stroke="#A9A9A9" stroke-width="1.5" stroke-linecap="round" stroke-linejoin="round"/>
<path d="M19.3667 19.3801C17.5867 21.0101 15.2267 22.0001 12.6267 22.0001C10.0267 22.0001 7.66672 21.0101 5.88672 19.3801C5.98672 18.4401 6.58672 17.5201 7.65672 16.8001C10.3967 14.9801 14.8767 14.9801 17.5967 16.8001C18.6667 17.5201 19.2667 18.4401 19.3667 19.3801Z" stroke="#A9A9A9" stroke-width="1.5" stroke-linecap="round" stroke-linejoin="round"/>
<path d="M12.625 22C18.1478 22 22.625 17.5228 22.625 12C22.625 6.47715 18.1478 2 12.625 2C7.10215 2 2.625 6.47715 2.625 12C2.625 17.5228 7.10215 22 12.625 22Z" stroke="#A9A9A9" stroke-width="1.5" stroke-linecap="round" stroke-linejoin="round"/>
</svg>
