<svg width="25" height="24" viewBox="0 0 25 24" fill="none" xmlns="http://www.w3.org/2000/svg">
<path d="M22.625 12C22.625 6.49 18.135 2 12.625 2C7.115 2 2.625 6.49 2.625 12C2.625 14.9 3.875 17.51 5.855 19.34C5.855 19.35 5.855 19.35 5.845 19.36C5.945 19.46 6.065 19.54 6.165 19.63C6.225 19.68 6.275 19.73 6.335 19.77C6.515 19.92 6.715 20.06 6.905 20.2C6.975 20.25 7.035 20.29 7.105 20.34C7.295 20.47 7.495 20.59 7.705 20.7C7.775 20.74 7.855 20.79 7.925 20.83C8.125 20.94 8.335 21.04 8.555 21.13C8.635 21.17 8.715 21.21 8.795 21.24C9.015 21.33 9.235 21.41 9.455 21.48C9.535 21.51 9.615 21.54 9.695 21.56C9.935 21.63 10.175 21.69 10.415 21.75C10.485 21.77 10.555 21.79 10.635 21.8C10.915 21.86 11.195 21.9 11.485 21.93C11.525 21.93 11.565 21.94 11.605 21.95C11.945 21.98 12.285 22 12.625 22C12.965 22 13.305 21.98 13.635 21.95C13.675 21.95 13.715 21.94 13.755 21.93C14.045 21.9 14.325 21.86 14.605 21.8C14.675 21.79 14.745 21.76 14.825 21.75C15.065 21.69 15.315 21.64 15.545 21.56C15.625 21.53 15.705 21.5 15.785 21.48C16.005 21.4 16.235 21.33 16.445 21.24C16.525 21.21 16.605 21.17 16.685 21.13C16.895 21.04 17.105 20.94 17.315 20.83C17.395 20.79 17.465 20.74 17.535 20.7C17.735 20.58 17.935 20.47 18.135 20.34C18.205 20.3 18.265 20.25 18.335 20.2C18.535 20.06 18.725 19.92 18.905 19.77C18.965 19.72 19.015 19.67 19.075 19.63C19.185 19.54 19.295 19.45 19.395 19.36C19.395 19.35 19.395 19.35 19.385 19.34C21.375 17.51 22.625 14.9 22.625 12ZM17.565 16.97C14.855 15.15 10.415 15.15 7.685 16.97C7.245 17.26 6.885 17.6 6.585 17.97C5.065 16.43 4.125 14.32 4.125 12C4.125 7.31 7.935 3.5 12.625 3.5C17.315 3.5 21.125 7.31 21.125 12C21.125 14.32 20.185 16.43 18.665 17.97C18.375 17.6 18.005 17.26 17.565 16.97Z" fill="#79001D"/>
<path d="M12.625 6.93018C10.555 6.93018 8.875 8.61018 8.875 10.6802C8.875 12.7102 10.465 14.3602 12.575 14.4202C12.605 14.4202 12.645 14.4202 12.665 14.4202C12.685 14.4202 12.715 14.4202 12.735 14.4202C12.745 14.4202 12.755 14.4202 12.755 14.4202C14.775 14.3502 16.365 12.7102 16.375 10.6802C16.375 8.61018 14.695 6.93018 12.625 6.93018Z" fill="#79001D"/>
</svg>
