<svg width="25" height="24" viewBox="0 0 25 24" fill="none" xmlns="http://www.w3.org/2000/svg">
<path d="M16.625 22.75H8.625C4.975 22.75 2.875 20.65 2.875 17V7C2.875 3.35 4.975 1.25 8.625 1.25H16.625C20.275 1.25 22.375 3.35 22.375 7V17C22.375 20.65 20.275 22.75 16.625 22.75ZM8.625 2.75C5.765 2.75 4.375 4.14 4.375 7V17C4.375 19.86 5.765 21.25 8.625 21.25H16.625C19.485 21.25 20.875 19.86 20.875 17V7C20.875 4.14 19.485 2.75 16.625 2.75H8.625Z" fill="#A9A9A9"/>
<path d="M9.625 11.11C9.455 11.11 9.285 11.08 9.125 11.01C8.665 10.81 8.375 10.36 8.375 9.87V2C8.375 1.59 8.715 1.25 9.125 1.25H16.125C16.535 1.25 16.875 1.59 16.875 2V9.85999C16.875 10.36 16.585 10.81 16.125 11C15.675 11.2 15.145 11.11 14.775 10.77L12.625 8.79999L10.475 10.78C10.235 11 9.935 11.11 9.625 11.11ZM12.625 7.21002C12.925 7.21002 13.235 7.31998 13.475 7.53998L15.375 9.28998V2.75H9.875V9.28998L11.775 7.53998C12.015 7.31998 12.325 7.21002 12.625 7.21002Z" fill="#A9A9A9"/>
<path d="M18.125 14.75H13.875C13.465 14.75 13.125 14.41 13.125 14C13.125 13.59 13.465 13.25 13.875 13.25H18.125C18.535 13.25 18.875 13.59 18.875 14C18.875 14.41 18.535 14.75 18.125 14.75Z" fill="#A9A9A9"/>
<path d="M18.125 18.75H9.625C9.215 18.75 8.875 18.41 8.875 18C8.875 17.59 9.215 17.25 9.625 17.25H18.125C18.535 17.25 18.875 17.59 18.875 18C18.875 18.41 18.535 18.75 18.125 18.75Z" fill="#A9A9A9"/>
</svg>
