<svg width="25" height="24" viewBox="0 0 25 24" fill="none" xmlns="http://www.w3.org/2000/svg">
<path d="M15.5553 2.5V8.4C15.5553 8.84 15.0353 9.06 14.7153 8.77L12.9653 7.16C12.7753 6.98 12.4753 6.98 12.2853 7.16L10.5353 8.76C10.2153 9.06 9.69531 8.83 9.69531 8.4V2.5C9.69531 2.22 9.91531 2 10.1953 2H15.0553C15.3353 2 15.5553 2.22 15.5553 2.5Z" fill="#79001D"/>
<path d="M17.605 2.05989C17.315 2.01989 17.055 2.26989 17.055 2.55989V8.57989C17.055 9.33989 16.605 10.0299 15.905 10.3399C15.205 10.6399 14.395 10.5099 13.835 9.98989L12.965 9.18989C12.775 9.00989 12.485 9.00989 12.285 9.18989L11.415 9.98989C11.055 10.3299 10.585 10.4999 10.115 10.4999C9.855 10.4999 9.595 10.4499 9.345 10.3399C8.645 10.0299 8.195 9.33989 8.195 8.57989V2.55989C8.195 2.26989 7.935 2.01989 7.645 2.05989C4.845 2.40989 3.625 4.29989 3.625 6.99989V16.9999C3.625 19.9999 5.125 21.9999 8.625 21.9999H16.625C20.125 21.9999 21.625 19.9999 21.625 16.9999V6.99989C21.625 4.29989 20.405 2.40989 17.605 2.05989ZM18.125 18.7499H9.625C9.215 18.7499 8.875 18.4099 8.875 17.9999C8.875 17.5899 9.215 17.2499 9.625 17.2499H18.125C18.535 17.2499 18.875 17.5899 18.875 17.9999C18.875 18.4099 18.535 18.7499 18.125 18.7499ZM18.125 14.7499H13.875C13.465 14.7499 13.125 14.4099 13.125 13.9999C13.125 13.5899 13.465 13.2499 13.875 13.2499H18.125C18.535 13.2499 18.875 13.5899 18.875 13.9999C18.875 14.4099 18.535 14.7499 18.125 14.7499Z" fill="#79001D"/>
</svg>
