<svg width="27" height="26" viewBox="0 0 27 26" fill="none" xmlns="http://www.w3.org/2000/svg">
<path d="M7.3787 23.684C6.79262 23.684 6.29109 23.4755 5.87409 23.0585C5.45709 22.6415 5.24824 22.1396 5.24753 21.5528V18.3561H7.3787V21.5528H20.1657V18.3561H22.2969V21.5528C22.2969 22.1389 22.0884 22.6408 21.6714 23.0585C21.2544 23.4762 20.7525 23.6847 20.1657 23.684H7.3787ZM5.24753 11.9626V4.50348C5.24753 3.91741 5.45638 3.41588 5.87409 2.99888C6.2918 2.58188 6.79334 2.37302 7.3787 2.37231H15.9034L22.2969 8.76581V11.9626H20.1657V9.8314H14.8378V4.50348H7.3787V11.9626H5.24753ZM2.05078 16.2249V14.0937H25.4936V16.2249H2.05078Z" fill="#0069ff"/>
</svg>
