<svg width="24" height="25" viewBox="0 0 24 25" fill="none" xmlns="http://www.w3.org/2000/svg">
<path d="M11 21.082C5.62 21.082 1.25 16.712 1.25 11.332C1.25 5.95203 5.62 1.58203 11 1.58203C16.38 1.58203 20.75 5.95203 20.75 11.332C20.75 16.712 16.38 21.082 11 21.082ZM11 3.08203C6.45 3.08203 2.75 6.78203 2.75 11.332C2.75 15.882 6.45 19.582 11 19.582C15.55 19.582 19.25 15.882 19.25 11.332C19.25 6.78203 15.55 3.08203 11 3.08203Z" fill="#292D32"/>
<path d="M20.1611 23.122C20.0811 23.122 20.0011 23.112 19.9311 23.102C19.4611 23.042 18.6111 22.722 18.1311 21.292C17.8811 20.542 17.9711 19.792 18.3811 19.222C18.7911 18.652 19.4811 18.332 20.2711 18.332C21.2911 18.332 22.0911 18.722 22.4511 19.412C22.8111 20.102 22.7111 20.982 22.1411 21.832C21.4311 22.902 20.6611 23.122 20.1611 23.122ZM19.5611 20.822C19.7311 21.342 19.9711 21.602 20.1311 21.622C20.2911 21.642 20.5911 21.452 20.9011 21.002C21.1911 20.572 21.2111 20.262 21.1411 20.122C21.0711 19.982 20.7911 19.832 20.2711 19.832C19.9611 19.832 19.7311 19.932 19.6011 20.102C19.4811 20.272 19.4611 20.532 19.5611 20.822Z" fill="#292D32"/>
</svg>
