<svg width="41" height="41" viewBox="0 0 41 41" fill="none" xmlns="http://www.w3.org/2000/svg">
<rect width="40.1748" height="40.1748" rx="20.0874" fill="#F3F3FF"/>
<path d="M11.75 11.7539H13.2C14.1 11.7539 14.8083 12.5289 14.7333 13.4206L14.0417 21.7206C13.925 23.0789 15 24.2456 16.3667 24.2456H25.2417C26.4417 24.2456 27.4917 23.2622 27.5833 22.0706L28.0333 15.8206C28.1333 14.4372 27.0833 13.3122 25.6917 13.3122H14.9333" stroke="#0D99FF" stroke-width="1.2" stroke-miterlimit="10" stroke-linecap="round" stroke-linejoin="round"/>
<path d="M23.6276 28.4207C24.2029 28.4207 24.6693 27.9544 24.6693 27.3791C24.6693 26.8038 24.2029 26.3374 23.6276 26.3374C23.0523 26.3374 22.5859 26.8038 22.5859 27.3791C22.5859 27.9544 23.0523 28.4207 23.6276 28.4207Z" stroke="#0D99FF" stroke-width="1.2" stroke-miterlimit="10" stroke-linecap="round" stroke-linejoin="round"/>
<path d="M16.9635 28.4207C17.5388 28.4207 18.0052 27.9544 18.0052 27.3791C18.0052 26.8038 17.5388 26.3374 16.9635 26.3374C16.3882 26.3374 15.9219 26.8038 15.9219 27.3791C15.9219 27.9544 16.3882 28.4207 16.9635 28.4207Z" stroke="#0D99FF" stroke-width="1.2" stroke-miterlimit="10" stroke-linecap="round" stroke-linejoin="round"/>
<path d="M17.5859 16.7539H27.5859" stroke="#0D99FF" stroke-width="1.2" stroke-miterlimit="10" stroke-linecap="round" stroke-linejoin="round"/>
</svg>
