<svg width="24" height="25" viewBox="0 0 24 25" fill="none" xmlns="http://www.w3.org/2000/svg">
<path d="M21 8.08203H3C2.59 8.08203 2.25 7.74203 2.25 7.33203C2.25 6.92203 2.59 6.58203 3 6.58203H21C21.41 6.58203 21.75 6.92203 21.75 7.33203C21.75 7.74203 21.41 8.08203 21 8.08203Z" fill="#292D32"/>
<path d="M18 13.082H6C5.59 13.082 5.25 12.742 5.25 12.332C5.25 11.922 5.59 11.582 6 11.582H18C18.41 11.582 18.75 11.922 18.75 12.332C18.75 12.742 18.41 13.082 18 13.082Z" fill="#292D32"/>
<path d="M14 18.082H10C9.59 18.082 9.25 17.742 9.25 17.332C9.25 16.922 9.59 16.582 10 16.582H14C14.41 16.582 14.75 16.922 14.75 17.332C14.75 17.742 14.41 18.082 14 18.082Z" fill="#292D32"/>
</svg>
