<svg width="41" height="41" viewBox="0 0 41 41" fill="none" xmlns="http://www.w3.org/2000/svg">
<rect width="40.1748" height="40.1748" rx="20.0874" fill="#FDF3FF"/>
<path d="M10.875 26.625V13.5H12.625V22.25H19.625V15.25H26.625C27.5875 15.25 28.4115 15.5927 29.0969 16.2781C29.7823 16.9635 30.125 17.7875 30.125 18.75V26.625H28.375V24H12.625V26.625H10.875ZM16.125 21.375C15.3958 21.375 14.776 21.1198 14.2656 20.6094C13.7552 20.099 13.5 19.4792 13.5 18.75C13.5 18.0208 13.7552 17.401 14.2656 16.8906C14.776 16.3802 15.3958 16.125 16.125 16.125C16.8542 16.125 17.474 16.3802 17.9844 16.8906C18.4948 17.401 18.75 18.0208 18.75 18.75C18.75 19.4792 18.4948 20.099 17.9844 20.6094C17.474 21.1198 16.8542 21.375 16.125 21.375ZM21.375 22.25H28.375V18.75C28.375 18.2688 28.2038 17.8569 27.8614 17.5145C27.519 17.1721 27.1068 17.0006 26.625 17H21.375V22.25ZM16.125 19.625C16.3729 19.625 16.5809 19.541 16.7489 19.373C16.9169 19.205 17.0006 18.9973 17 18.75C16.9994 18.5027 16.9154 18.295 16.748 18.127C16.5806 17.959 16.3729 17.875 16.125 17.875C15.8771 17.875 15.6694 17.959 15.502 18.127C15.3346 18.295 15.2506 18.5027 15.25 18.75C15.2494 18.9973 15.3334 19.2053 15.502 19.3739C15.6706 19.5425 15.8783 19.6262 16.125 19.625Z" fill="#B41FD2"/>
</svg>
