<svg width="135" height="130" viewBox="0 0 135 130" fill="none" xmlns="http://www.w3.org/2000/svg">
<path opacity="0.2" d="M93.2089 94.1175C110.365 77.5081 111.653 51.0079 96.0853 34.9278C80.5177 18.8477 53.9898 19.2768 36.8336 35.8862C19.6774 52.4956 18.3896 78.9957 33.9572 95.0758C49.5248 111.156 76.0527 110.727 93.2089 94.1175Z" fill="#002b9b"/>
<path opacity="0.2" d="M60.8117 129.579C25.2026 129.579 -1.89003 100.61 0.418486 65.0006C2.72583 29.3915 33.5737 0.421875 69.1828 0.421875C104.791 0.421875 131.883 29.3915 129.575 65.0006C127.268 100.61 96.4196 129.579 60.8117 129.579ZM69.1066 1.59431C34.1447 1.59431 3.85606 30.0375 1.59092 65.0006C-0.675393 99.9626 25.926 128.407 60.8879 128.407C95.8498 128.407 126.136 99.9637 128.402 65.0006C130.669 30.0387 104.069 1.59431 69.1066 1.59431Z" fill="#002b9b"/>
<path d="M54.9978 85.2916L51.5063 78.5138C43.8878 63.727 26.3295 50.5102 20.207 46.6658L25.9989 38.0004C33.2492 42.5529 47.7545 53.8223 56.8585 67.2045C73.6712 47.2884 97.4504 26.7438 129.29 4.6001L134.719 12.7825C100.697 36.4434 76.2481 58.0771 59.9736 78.9218L54.9978 85.2916Z" fill="#002b9b"/>
</svg>
