<svg width="27" height="26" viewBox="0 0 27 26" fill="none" xmlns="http://www.w3.org/2000/svg">
<path d="M19.6837 18.6224C19.3676 18.6224 19.0585 18.5287 18.7957 18.3531C18.5328 18.1774 18.328 17.9278 18.207 17.6357C18.086 17.3437 18.0543 17.0223 18.116 16.7122C18.1777 16.4022 18.3299 16.1174 18.5535 15.8938C18.777 15.6703 19.0618 15.5181 19.3719 15.4564C19.6819 15.3947 20.0033 15.4264 20.2954 15.5474C20.5874 15.6683 20.837 15.8732 21.0127 16.1361C21.1883 16.3989 21.2821 16.7079 21.2821 17.0241C21.2821 17.448 21.1137 17.8545 20.8139 18.1543C20.5141 18.454 20.1076 18.6224 19.6837 18.6224ZM23.28 11.8293H18.8845C18.5666 11.8293 18.2616 11.9556 18.0368 12.1805C17.812 12.4053 17.6857 12.7102 17.6857 13.0281C17.6857 13.3461 17.812 13.651 18.0368 13.8758C18.2616 14.1006 18.5666 14.2269 18.8845 14.2269H22.8804V19.8212H4.49912V14.2269H8.49506C8.813 14.2269 9.11791 14.1006 9.34273 13.8758C9.56754 13.651 9.69384 13.3461 9.69384 13.0281C9.69384 12.7102 9.56754 12.4053 9.34273 12.1805C9.11791 11.9556 8.813 11.8293 8.49506 11.8293H4.09953C3.56964 11.8293 3.06145 12.0398 2.68675 12.4145C2.31206 12.7892 2.10156 13.2974 2.10156 13.8273V20.2208C2.10156 20.7507 2.31206 21.2589 2.68675 21.6336C3.06145 22.0083 3.56964 22.2188 4.09953 22.2188H23.28C23.8099 22.2188 24.3181 22.0083 24.6928 21.6336C25.0675 21.2589 25.278 20.7507 25.278 20.2208V13.8273C25.278 13.2974 25.0675 12.7892 24.6928 12.4145C24.3181 12.0398 23.8099 11.8293 23.28 11.8293ZM9.74279 8.28195L12.491 5.53574V13.0281C12.491 13.3461 12.6173 13.651 12.8421 13.8758C13.0669 14.1006 13.3718 14.2269 13.6898 14.2269C14.0077 14.2269 14.3126 14.1006 14.5374 13.8758C14.7623 13.651 14.8886 13.3461 14.8886 13.0281V5.53574L17.6368 8.28495C17.7483 8.39646 17.8807 8.48491 18.0263 8.54526C18.172 8.60561 18.3282 8.63667 18.4859 8.63667C18.6436 8.63667 18.7998 8.60561 18.9454 8.54526C19.0911 8.48491 19.2235 8.39646 19.335 8.28495C19.4465 8.17344 19.535 8.04106 19.5953 7.89536C19.6557 7.74967 19.6868 7.59351 19.6868 7.43581C19.6868 7.27811 19.6557 7.12196 19.5953 6.97626C19.535 6.83057 19.4465 6.69819 19.335 6.58668L14.5399 1.79155C14.4285 1.67979 14.2962 1.59112 14.1505 1.53062C14.0048 1.47011 13.8486 1.43896 13.6908 1.43896C13.533 1.43896 13.3768 1.47011 13.2311 1.53062C13.0853 1.59112 12.953 1.67979 12.8416 1.79155L8.04652 6.58668C7.93501 6.69819 7.84655 6.83057 7.7862 6.97626C7.72585 7.12196 7.69479 7.27811 7.69479 7.43581C7.69479 7.7543 7.82131 8.05974 8.04652 8.28495C8.27172 8.51015 8.57716 8.63667 8.89565 8.63667C9.21414 8.63667 9.51958 8.51015 9.74479 8.28495L9.74279 8.28195Z" fill="#0069ff"/>
</svg>
