<svg width="49" height="50" viewBox="0 0 49 50" fill="none" xmlns="http://www.w3.org/2000/svg">
<rect y="0.56189" width="48.7525" height="48.7525" rx="4" fill="#eff6ff"/>
<path d="M25.095 30.0916C25.4128 30.0916 25.6794 29.9903 25.8947 29.7876C26.1101 29.585 26.2174 29.3344 26.2167 29.0361C26.2159 28.7377 26.1082 28.4872 25.8936 28.2845C25.679 28.0818 25.4128 27.9805 25.095 27.9805C24.7772 27.9805 24.511 28.0818 24.2964 28.2845C24.0818 28.4872 23.9741 28.7377 23.9733 29.0361C23.9726 29.3344 24.0803 29.5853 24.2964 29.7887C24.5125 29.992 24.7787 30.093 25.095 30.0916ZM23.9733 25.8694H26.2167V19.5361H23.9733V25.8694ZM20.8888 34.3138L15 28.7722V20.8555L20.8888 15.3138H29.3013L35.19 20.8555V28.7722L29.3013 34.3138H20.8888ZM21.8422 32.2027H28.3478L32.9467 27.875V21.7527L28.3478 17.425H21.8422L17.2433 21.7527V27.875L21.8422 32.2027Z" fill="#0069ff"/>
</svg>
